SplineFontDB: 3.0
FontName: Techna-Regular
FullName: Techna Regular
FamilyName: Techna
Weight: Regular
Copyright: Copyright (c) 2019, Carl Enlund
UComments: "2019-5-11: Created with FontForge (http://fontforge.org)"
Version: 001.000
ItalicAngle: 0
UnderlinePosition: -100
UnderlineWidth: 50
Ascent: 800
Descent: 200
InvalidEm: 0
LayerCount: 2
Layer: 0 0 "Back" 1
Layer: 1 0 "Fore" 0
XUID: [1021 637 837473831 1446149]
FSType: 0
OS2Version: 0
OS2_WeightWidthSlopeOnly: 0
OS2_UseTypoMetrics: 1
CreationTime: 1557605594
ModificationTime: 1558644887
PfmFamily: 17
TTFWeight: 400
TTFWidth: 5
LineGap: 90
VLineGap: 0
OS2TypoAscent: 0
OS2TypoAOffset: 1
OS2TypoDescent: 0
OS2TypoDOffset: 1
OS2TypoLinegap: 0
OS2WinAscent: 0
OS2WinAOffset: 1
OS2WinDescent: 0
OS2WinDOffset: 1
HheadAscent: 0
HheadAOffset: 1
HheadDescent: 0
HheadDOffset: 1
OS2Vendor: 'PfEd'
Lookup: 258 0 0 "'kern' Horizontal Kerning in Latin lookup 0" { "'kern' Horizontal Kerning in Latin lookup 0-1" [150,15,0] } ['kern' ('DFLT' <'dflt' > 'latn' <'dflt' > ) ]
MarkAttachClasses: 1
DEI: 91125
LangName: 1033
Encoding: ISO8859-1
UnicodeInterp: none
NameList: AGL For New Fonts
DisplaySize: -72
AntiAlias: 1
FitToEm: 0
WinInfo: 50 25 3
BeginPrivate: 0
EndPrivate
Grid
-976 -155 m 0
 2024 -155 l 1024
-1021.83337402 1300 m 0
 -1021.83337402 -700 l 1024
-1000 503 m 0
 2000 503 l 1024
-1000 413.916992188 m 0
 2000 413.916992188 l 1024
-1000 688 m 0
 2000 688 l 1024
EndSplineSet
BeginChars: 256 69

StartChar: D
Encoding: 68 68 0
Width: 695
VWidth: 0
Flags: HW
LayerCount: 2
Fore
SplineSet
322 121 m 5
 322 0 l 5
 142 0 l 1
 142 121 l 1
 322 121 l 5
332 688 m 5
 326 567 l 5
 142 567 l 1
 142 688 l 1
 332 688 l 5
60 0 m 1
 60 688 l 1
 194 688 l 1
 194 0 l 1
 60 0 l 1
332 688 m 5
 555.106733588 688 675 540.865234375 675 350 c 3
 675 152.017578125 551.669727554 0 322 0 c 5
 322 121 l 5
 469.964969758 121 542 221.337890625 542 346 c 3
 542 468.446289062 471.274537853 567 326 567 c 5
 332 688 l 5
EndSplineSet
EndChar

StartChar: E
Encoding: 69 69 1
Width: 553
VWidth: 0
Flags: HW
LayerCount: 2
Fore
SplineSet
125 412.916992188 m 1
 455 412.916992188 l 1
 423 293 l 1
 123 292.916992188 l 1
 125 412.916992188 l 1
125 123 m 1
 515 123 l 1
 548 0 l 1
 125 0 l 1
 125 123 l 1
125 688 m 1
 525 688 l 1
 493 565 l 1
 125 565 l 1
 125 688 l 1
60 0 m 1
 60 688 l 1
 194 688 l 1
 194 0 l 1
 60 0 l 1
EndSplineSet
EndChar

StartChar: C
Encoding: 67 67 2
Width: 614
VWidth: 0
Flags: HW
LayerCount: 2
Fore
SplineSet
561 546 m 5
 529 556.56 480 570 413 570 c 7
 301 570 154 519.6925825 154 347 c 7
 154 177.723848545 288 113 421 113 c 7
 485 113 547 126.575757576 589 145 c 5
 589 17 l 5
 556.762105083 3.51858836207 492.828382555 -11 413 -11 c 7
 237.42578125 -11 20 72.3076171875 20 343 c 7
 20 629.174804688 263.901367188 697 432 697 c 7
 507.048549107 697 567.306989397 682.473899148 594 674 c 5
 561 546 l 5
EndSplineSet
EndChar

StartChar: G
Encoding: 71 71 3
Width: 700
VWidth: 0
Flags: HW
LayerCount: 2
Fore
SplineSet
594 541 m 1
 568 550.310344828 497 571 420 571 c 3
 304.763006203 571 154 523.383840415 154 347 c 3
 154 177.000446188 285.142143004 112 431 112 c 3
 493 112 562.653846154 128.593406593 594 145 c 1
 642 16 l 1
 606.495412844 7.0989010989 502.940366972 -11 427 -11 c 3
 230.551980198 -11 20 72.7607421875 20 343 c 3
 20 630 266.224609375 697 431 697 c 3
 527.097421875 697 594.650429688 680 627 670 c 1
 594 541 l 1
513 16 m 1
 513 355 l 5
 642 355 l 5
 642 16 l 1
 513 16 l 1
368 405 m 5
 642 405 l 5
 642 286 l 5
 337 286 l 5
 368 405 l 5
EndSplineSet
EndChar

StartChar: T
Encoding: 84 84 4
Width: 563
VWidth: 0
Flags: HW
LayerCount: 2
Fore
SplineSet
559 688 m 5
 559 565 l 5
 -4 565 l 5
 28 688 l 5
 559 688 l 5
222 0 m 1
 222 639 l 1
 356 639 l 1
 356 0 l 1
 222 0 l 1
EndSplineSet
EndChar

StartChar: H
Encoding: 72 72 5
Width: 641
VWidth: 0
Flags: HW
LayerCount: 2
Fore
SplineSet
121 413.916992188 m 1
 522 413.916992188 l 1
 522 291 l 1
 121 290.916992188 l 1
 121 413.916992188 l 1
447 0 m 1
 447 688 l 1
 581 688 l 1
 581 0 l 1
 447 0 l 1
60 0 m 1
 60 688 l 1
 194 688 l 1
 194 0 l 1
 60 0 l 1
EndSplineSet
EndChar

StartChar: N
Encoding: 78 78 6
Width: 641
VWidth: 0
Flags: HW
LayerCount: 2
Fore
SplineSet
103 653 m 1
 189 688 l 1
 217 688 l 1
 551 35 l 5
 466 0 l 5
 438 0 l 5
 103 653 l 1
447 0 m 1
 447 688 l 1
 581 688 l 1
 581 0 l 1
 447 0 l 1
60 0 m 1
 60 688 l 1
 194 688 l 1
 194 0 l 1
 60 0 l 1
EndSplineSet
EndChar

StartChar: A
Encoding: 65 65 7
Width: 635
VWidth: 0
Flags: HW
LayerCount: 2
Fore
SplineSet
489 0 m 5
 287 688 l 5
 421 688 l 5
 627 0 l 5
 489 0 l 5
8 0 m 5
 218 688 l 5
 348 688 l 5
 142 0 l 5
 8 0 l 5
121 275 m 5
 515 275 l 5
 515 158 l 5
 121 158 l 5
 121 275 l 5
EndSplineSet
EndChar

StartChar: B
Encoding: 66 66 8
Width: 589
VWidth: 0
Flags: HW
LayerCount: 2
Fore
SplineSet
332 118 m 1
 338 0 l 1
 142 0 l 1
 142 118 l 1
 332 118 l 1
401 406 m 1
 401 291 l 1
 142 291 l 1
 142 406 l 1
 401 406 l 1
352 373 m 1
 480.846938776 373 559 294.446742869 559 196 c 7
 559 82.578680203 479.991500785 0 338 0 c 1
 332 118 l 1
 392.474624748 118 422 156.797219016 422 205 c 3
 422 252.6484375 392.474624748 291 332 291 c 1
 352 373 l 1
338 688 m 1
 326 568 l 1
 142 568 l 1
 142 688 l 1
 338 688 l 1
60 0 m 1
 60 688 l 1
 194 688 l 1
 194 0 l 1
 60 0 l 1
338 688 m 1
 471.01953125 688 541 606.537142857 541 512 c 7
 541 415.584072672 478.049180328 344 361 344 c 1
 326 406 l 1
 378.526296593 406 407 440.121439119 407 487 c 3
 407 533.903271484 378.526296593 568 326 568 c 1
 338 688 l 1
EndSplineSet
EndChar

StartChar: F
Encoding: 70 70 9
Width: 525
VWidth: 0
Flags: HW
LayerCount: 2
Fore
SplineSet
125 406.916992188 m 5
 451 406.916992188 l 5
 419 286 l 5
 125 286 l 5
 125 406.916992188 l 5
  Spiro
    125 406.917 v
    451 406.917 v
    419 286 v
    125 286 v
    0 0 z
  EndSpiro
125 688 m 1
 525 688 l 1
 492 565 l 1
 125 565 l 1
 125 688 l 1
60 0 m 1
 60 688 l 1
 194 688 l 1
 194 0 l 1
 60 0 l 1
  Spiro
    60 0 v
    60 688 v
    194 688 v
    194 0 v
    0 0 z
  EndSpiro
EndSplineSet
EndChar

StartChar: I
Encoding: 73 73 10
Width: 264
VWidth: 0
Flags: HW
LayerCount: 2
Fore
SplineSet
65 0 m 1
 65 688 l 1
 199 688 l 1
 199 0 l 1
 65 0 l 1
EndSplineSet
EndChar

StartChar: L
Encoding: 76 76 11
Width: 517
VWidth: 0
Flags: HW
LayerCount: 2
Fore
SplineSet
60 0 m 1
 60 688 l 1
 194 688 l 1
 194 0 l 1
 60 0 l 1
125 0 m 1
 125 123 l 1
 517 123 l 1
 486 0 l 1
 125 0 l 1
EndSplineSet
EndChar

StartChar: M
Encoding: 77 77 12
Width: 751
VWidth: 0
Flags: HW
LayerCount: 2
Fore
SplineSet
557 0 m 1
 557 688 l 1
 691 688 l 1
 691 0 l 1
 557 0 l 1
327 266 m 1
 327 323 l 1
 530 688 l 1
 647 688 l 1
 427 266 l 1
 327 266 l 1
325 266 m 1
 101 688 l 1
 223 688 l 1
 425 330 l 1
 425 266 l 1
 325 266 l 1
60 0 m 1
 60 688 l 1
 194 688 l 1
 194 0 l 1
 60 0 l 1
EndSplineSet
EndChar

StartChar: O
Encoding: 79 79 13
Width: 788
VWidth: 0
Flags: HW
LayerCount: 2
Fore
SplineSet
394 705 m 3
 638.69140625 705 768 538.087009006 768 346 c 3
 768 151.690561148 638.69140625 -17 394 -17 c 3
 149.30859375 -17 20 151.690561148 20 346 c 3
 20 538.087009006 149.30859375 705 394 705 c 3
394 584 m 3
 235.959480728 584 153 468.999593099 153 346 c 3
 153 220.933025422 235.959480728 104 394 104 c 7
 552.040519272 104 635 220.933025422 635 346 c 3
 635 468.999593099 552.040519272 584 394 584 c 3
EndSplineSet
EndChar

StartChar: P
Encoding: 80 80 14
Width: 566
VWidth: 0
Flags: HW
LayerCount: 2
Fore
SplineSet
324 381 m 5
 325 261 l 5
 142 261 l 1
 142 381 l 1
 324 381 l 5
331 688 m 5
 324 566 l 5
 142 566 l 1
 142 688 l 1
 331 688 l 5
60 0 m 1
 60 688 l 1
 194 688 l 1
 194 0 l 1
 60 0 l 1
331 688 m 5
 476.442223837 688 551 596.690501493 551 477 c 7
 551 354.114271831 474.379065328 261 325 261 c 5
 324 381 l 5
 388.069233905 381 416 421.958288434 416 475 c 7
 416 525.419433594 388.069233905 566 324 566 c 5
 331 688 l 5
EndSplineSet
EndChar

StartChar: Q
Encoding: 81 81 15
Width: 788
VWidth: 0
Flags: HW
LayerCount: 2
Fore
SplineSet
618 -60 m 5
 361 228 l 5
 452 304 l 5
 709 16 l 5
 618 -60 l 5
EndSplineSet
Refer: 13 79 N 1 0 0 1 0 0 2
EndChar

StartChar: R
Encoding: 82 82 16
Width: 581
VWidth: 0
Flags: HW
LayerCount: 2
Fore
SplineSet
367 383 m 1
 367 268 l 1
 142 268 l 1
 142 383 l 1
 367 383 l 1
332 688 m 1
 325 566 l 1
 142 566 l 1
 142 688 l 1
 332 688 l 1
60 0 m 1
 60 688 l 1
 194 688 l 1
 194 0 l 1
 60 0 l 1
332 688 m 1
 474.695601342 688 551 599.302439024 551 479 c 3
 551 360.708177649 478.213114755 268 311 268 c 5
 325 383 l 1
 388.372829189 383 416 423.522561961 416 476 c 3
 416 525.865373884 388.372829189 566 325 566 c 1
 332 688 l 1
402 0 m 1
 257 316 l 1
 404 316 l 1
 551 0 l 1
 402 0 l 1
EndSplineSet
EndChar

StartChar: U
Encoding: 85 85 17
Width: 624
VWidth: 0
Flags: HW
LayerCount: 2
Fore
SplineSet
192 240 m 2
 192 155.22176296 231.837791314 107 312 107 c 7
 392.162208686 107 432 155.22176296 432 240 c 2
 432 688 l 1
 566 688 l 1
 566 229 l 2
 566 75.9666992187 478.180578807 -17 312 -17 c 7
 145.819421193 -17 58 75.9666992188 58 229 c 2
 58 688 l 1
 192 688 l 1
 192 240 l 2
EndSplineSet
EndChar

StartChar: V
Encoding: 86 86 18
Width: 587
VWidth: 0
Flags: HW
LayerCount: 2
Fore
SplineSet
945 362 m 1049
255 0 m 5,0,-1
 435 688 l 1,1,-1
 577 688 l 1,2,-1
 384 0 l 5,3,-1
 255 0 l 5,0,-1
199 0 m 5,4,-1
 10 688 l 1,5,-1
 156 688 l 1,6,-1
 332 0 l 5,7,-1
 199 0 l 5,4,-1
EndSplineSet
EndChar

StartChar: Z
Encoding: 90 90 19
Width: 550
VWidth: 0
Flags: HW
LayerCount: 2
Fore
SplineSet
21 26 m 1
 103 121 l 1
 550 121 l 1
 517 0 l 1
 21 0 l 1
 21 26 l 1
527 662 m 1
 444 567 l 1
 23 567 l 5
 56 688 l 5
 527 688 l 1
 527 662 l 1
21 26 m 1
 371 652 l 1
 527 662 l 1
 177 38 l 1
 21 26 l 1
EndSplineSet
EndChar

StartChar: W
Encoding: 87 87 21
Width: 867
VWidth: 0
Flags: HW
LayerCount: 2
Fore
SplineSet
596 0 m 5
 706 688 l 1
 842 688 l 1
 720 0 l 5
 596 0 l 5
553 0 m 5
 386 688 l 1
 508 688 l 1
 677 0 l 5
 553 0 l 5
188 0 m 1
 363 688 l 1
 479 688 l 1
 305 0 l 1
 188 0 l 1
141 0 m 1
 25 688 l 1
 165 688 l 1
 269 0 l 1
 141 0 l 1
EndSplineSet
EndChar

StartChar: Y
Encoding: 89 89 22
Width: 557
VWidth: 0
Flags: HW
LayerCount: 2
Fore
SplineSet
212 0 m 1
 212 328 l 1
 346 328 l 1
 346 0 l 1
 212 0 l 1
215 251 m 1
 416 688 l 1
 562 688 l 1
 342 243 l 5
 215 251 l 1
214 241 m 5
 -5 688 l 1
 145 688 l 1
 346 254 l 1
 214 241 l 5
EndSplineSet
EndChar

StartChar: X
Encoding: 88 88 23
Width: 588
VWidth: 0
Flags: HW
LayerCount: 2
Back
SplineSet
151 0 m 1
 0 0 l 1
 431 688 l 1
 581 688 l 1
 151 0 l 1
439 0 m 1
 17 688 l 1
 173 688 l 1
 594 0 l 1
 439 0 l 1
EndSplineSet
Fore
SplineSet
151 0 m 1
 0 0 l 1
 204.015625 355.854492188 l 1
 17 688 l 1
 173 688 l 1
 301.1953125 449.426757812 l 1
 431 688 l 1
 581 688 l 1
 390.020507812 357.194335938 l 1
 594 0 l 1
 439 0 l 1
 292.840820312 263.62109375 l 5
 151 0 l 1
EndSplineSet
EndChar

StartChar: S
Encoding: 83 83 24
Width: 505
VWidth: 0
Flags: HW
LayerCount: 2
Fore
SplineSet
462 667 m 1
 431 542 l 1
 372.388157895 570.194444444 325.197747481 577 280 577 c 3
 211.616071429 577 169 554.302631579 169 502 c 3
 169 461.482421875 193 444.896551724 258 418 c 2
 316 394 l 2
 422 350.137931034 485 304 485 198 c 3
 485 60.6602870813 392 -10 241 -10 c 3
 162.838867188 -10 91.0146484375 9.10904296875 42 39 c 1
 42 174 l 1
 102 132.636363636 177 109 250 109 c 3
 314.362745098 109 351 132.707596009 351 190 c 3
 351 228 321.184041451 246.547357513 249 277 c 2
 185 304 l 2
 103.627836788 338.328881355 35 375.6328125 35 499 c 3
 35 621.388886719 133 698 289 698 c 3
 356.562589799 698 424.124208648 684.848083496 462 667 c 1
EndSplineSet
EndChar

StartChar: K
Encoding: 75 75 25
Width: 591
VWidth: 0
Flags: HW
LayerCount: 2
Fore
SplineSet
160 360 m 1
 327 360 l 1
 601 0 l 1
 431 0 l 1
 160 360 l 1
161 351 m 1
 426 688 l 1
 587 688 l 1
 322 351 l 1
 161 351 l 1
60 0 m 1
 60 688 l 1
 194 688 l 1
 194 0 l 1
 60 0 l 1
EndSplineSet
EndChar

StartChar: J
Encoding: 74 74 26
Width: 476
VWidth: 0
Flags: HW
LayerCount: 2
Fore
SplineSet
354 688 m 5
 354 565 l 5
 46 565 l 5
 78 688 l 5
 354 688 l 5
35 147 m 1
 76.4951171875 126.076171875 113.338867188 115 162 115 c 3
 240.080078125 115 284 149 284 228 c 2
 284 688 l 1
 418 688 l 1
 418 217 l 2
 418 65 334.424804688 -9 176 -9 c 3
 125.143554688 -9 64.1728515625 1.73046875 35 22 c 1
 35 147 l 1
EndSplineSet
EndChar

StartChar: Odieresis
Encoding: 214 214 27
Width: 788
VWidth: 0
Flags: HW
LayerCount: 2
Fore
SplineSet
429 750 m 1
 429 883 l 1
 563 883 l 1
 563 750 l 1
 429 750 l 1
225 750 m 5
 225 883 l 5
 359 883 l 5
 359 750 l 5
 225 750 l 5
EndSplineSet
Refer: 13 79 N 1 0 0 1 0 0 2
EndChar

StartChar: o
Encoding: 111 111 28
Width: 578
VWidth: 0
Flags: HW
LayerCount: 2
Fore
SplineSet
289 518 m 3
 459.931640625 518 558 402 558 252 c 3
 558 101 459.931640625 -15 289 -15 c 3
 118.068359375 -15 20 101 20 252 c 3
 20 402 118.068359375 518 289 518 c 3
289 404 m 3
 197.461914062 404 149 336.106445312 149 252 c 3
 149 167.900390625 197.461914062 99 289 99 c 3
 380.538085938 99 429 167.900390625 429 252 c 3
 429 336.106445312 380.538085938 404 289 404 c 3
EndSplineSet
EndChar

StartChar: i
Encoding: 105 105 29
Width: 229
VWidth: 0
Flags: HW
LayerCount: 2
Fore
SplineSet
50 566 m 5
 50 688 l 5
 179 688 l 5
 179 566 l 5
 50 566 l 5
50 0 m 1
 50 503 l 1
 179 503 l 1
 179 0 l 1
 50 0 l 1
EndSplineSet
EndChar

StartChar: hyphen
Encoding: 45 45 30
Width: 384
VWidth: 0
Flags: HW
LayerCount: 2
Fore
SplineSet
354 363 m 5
 354 239 l 5
 18 239 l 1
 50 363 l 1
 354 363 l 5
EndSplineSet
EndChar

StartChar: l
Encoding: 108 108 31
Width: 229
VWidth: 0
Flags: HW
LayerCount: 2
Fore
SplineSet
50 0 m 1
 50 688 l 5
 179 688 l 5
 179 0 l 1
 50 0 l 1
EndSplineSet
EndChar

StartChar: n
Encoding: 110 110 32
Width: 536
VWidth: 0
Flags: HW
LayerCount: 2
Fore
SplineSet
50 0 m 1
 50 503 l 1
 175 503 l 5
 176 360 l 1
 179 360 l 1
 179 0 l 1
 50 0 l 1
162 358 m 1
 162 450.981445312 219.5859375 512 325 512 c 3
 430.52734375 512 492 442.806640625 492 338 c 2
 492 0 l 1
 363 0 l 1
 363 298 l 2
 363 355.795898438 334.674804688 394 276 394 c 3
 214.6328125 394 179 356.756835938 179 288 c 1
 162 358 l 1
EndSplineSet
EndChar

StartChar: h
Encoding: 104 104 33
Width: 536
VWidth: 0
Flags: HW
LayerCount: 2
Fore
SplineSet
50 0 m 1
 50 688 l 1
 179 688 l 1
 179 0 l 1
 50 0 l 1
162 358 m 1
 162 450.981445312 219.5859375 512 325 512 c 3
 430.52734375 512 492 442.806640625 492 338 c 2
 492 0 l 1
 363 0 l 1
 363 298 l 6
 363 355.795898438 334.674804688 394 276 394 c 3
 214.6328125 394 179 356.756835938 179 288 c 1
 162 358 l 1
EndSplineSet
EndChar

StartChar: a
Encoding: 97 97 34
Width: 485
VWidth: 0
Flags: HW
LayerCount: 2
Fore
SplineSet
314 316 m 1
 314 366.165039062 279.022460938 399 202 399 c 3
 141.818359375 399 85.7646484375 379.526367188 50 362 c 1
 81 482 l 1
 118.48046875 501 171.612304688 512 229 512 c 3
 375.086914062 512 441 441.599609375 441 336 c 1
 314 316 l 1
441 336 m 1
 441 0 l 1
 318 0 l 1
 317 143 l 1
 314 143 l 1
 314 316 l 1
 441 336 l 1
148 159 m 3
 148 122 175.713867188 100 220 100 c 3
 280.9296875 100 314 133.859375 314 197 c 1
 331 145 l 1
 331 52.3671875 272.215820312 -8 181 -8 c 3
 76.0458984375 -8 19 57 19 144 c 7
 19 279.619140625 143.986328125 297.154296875 246.7890625 306.006835938 c 2
 328 313 l 1
 328 223 l 1
 232.8515625 215.999023438 l 2
 182.975585938 212.329101562 148 194.909179688 148 159 c 3
EndSplineSet
EndChar

StartChar: u
Encoding: 117 117 35
Width: 532
VWidth: 0
Flags: HW
LayerCount: 2
Fore
SplineSet
482 503 m 1
 482 0 l 1
 357 0 l 5
 356 143 l 1
 353 143 l 1
 353 503 l 1
 482 503 l 1
370 145 m 1
 370 52.0185546875 313.12109375 -9 209 -9 c 3
 104.736328125 -9 44 60.5908203125 44 166 c 2
 44 503 l 1
 173 503 l 1
 173 205 l 2
 173 147.204101562 200.674804688 109 258 109 c 3
 318.1015625 109 353 146.243164062 353 215 c 1
 370 145 l 1
EndSplineSet
EndChar

StartChar: b
Encoding: 98 98 36
Width: 597
VWidth: 0
Flags: HW
LayerCount: 2
Fore
SplineSet
179 143 m 1
 179 202 l 1
 178 202 l 1
 178 302 l 1
 179 302 l 1
 179 688 l 1
 50 688 l 1
 50 0 l 1
 175 0 l 5
 176 143 l 1
 179 143 l 1
338 515 m 3
 220.592773438 515 147 429.221679688 147 322 c 1
 147 182 l 1
 147 74.71875 219.80859375 -12 338 -12 c 3
 488.045898438 -12 577 102.696289062 577 252 c 3
 577 400.30859375 488.045898438 515 338 515 c 3
313 401 m 3
 401.26953125 401 448 334.446289062 448 252 c 3
 448 169.549804688 401.26953125 102 313 102 c 3
 224.73046875 102 178 169.549804688 178 252 c 3
 178 334.446289062 224.73046875 401 313 401 c 3
EndSplineSet
EndChar

StartChar: d
Encoding: 100 100 37
Width: 597
VWidth: 0
Flags: HW
LayerCount: 2
Fore
SplineSet
418 143 m 1
 418 202 l 1
 419 202 l 1
 419 302 l 1
 418 302 l 1
 418 688 l 1
 547 688 l 1
 547 0 l 1
 422 0 l 5
 421 143 l 1
 418 143 l 1
264 515 m 3
 376.352539062 515 450 429.221679688 450 322 c 1
 450 182 l 17
 450 74.71875 377.13671875 -12 264 -12 c 3
 108.954101562 -12 20 102.696289062 20 252 c 3
 20 400.30859375 108.954101562 515 264 515 c 3
284 401 m 3
 195.73046875 401 149 334.446289062 149 252 c 3
 149 169.549804688 195.73046875 102 284 102 c 3
 372.26953125 102 419 169.549804688 419 252 c 3
 419 334.446289062 372.26953125 401 284 401 c 3
EndSplineSet
EndChar

StartChar: p
Encoding: 112 112 38
Width: 597
VWidth: 0
Flags: HW
LayerCount: 2
Fore
SplineSet
179 360 m 1
 179 301 l 1
 178 301 l 1
 178 201 l 1
 179 201 l 1
 179 -155 l 1
 50 -155 l 1
 50 503 l 1
 175 503 l 1
 176 360 l 1
 179 360 l 1
338 -12 m 3
 220.647460938 -12 147 73.7783203125 147 181 c 1
 147 321 l 1
 147 428.28125 219.86328125 515 339 515 c 3
 488.045898438 515 577 400.303710938 577 251 c 3
 577 102.69140625 488.045898438 -12 338 -12 c 3
313 102 m 3
 401.26953125 102 448 168.553710938 448 251 c 3
 448 333.450195312 401.26953125 401 313 401 c 3
 224.73046875 401 178 333.450195312 178 251 c 3
 178 168.553710938 224.73046875 102 313 102 c 3
EndSplineSet
EndChar

StartChar: q
Encoding: 113 113 39
Width: 597
VWidth: 0
Flags: HW
LayerCount: 2
Fore
SplineSet
418 360 m 1
 418 301 l 1
 419 301 l 1
 419 201 l 1
 418 201 l 1
 418 -155 l 1
 547 -155 l 1
 547 503 l 1
 422 503 l 5
 421 360 l 1
 418 360 l 1
259 -12 m 3
 376.352539062 -12 450 73.7783203125 450 181 c 1
 450 322 l 1
 450 428.727539062 377.13671875 515 259 515 c 3
 108.954101562 515 20 400.303710938 20 251 c 3
 20 102.69140625 108.954101562 -12 259 -12 c 3
284 102 m 3
 195.73046875 102 149 168.553710938 149 251 c 3
 149 333.450195312 195.73046875 401 284 401 c 3
 372.26953125 401 419 333.450195312 419 251 c 3
 419 168.553710938 372.26953125 102 284 102 c 3
EndSplineSet
EndChar

StartChar: t
Encoding: 116 116 40
Width: 337
VWidth: 0
Flags: HW
LayerCount: 2
Fore
SplineSet
315 393 m 5
 -10 393 l 1
 -10 418 l 1
 168 612 l 1
 168 503 l 1
 315 503 l 1
 315 393 l 5
67 145 m 2
 67 433 l 1
 168 612 l 1
 196 612 l 1
 196 175 l 2
 196 124 211.7578125 108 266 108 c 3
 282 108 300.888671875 111.22265625 317 117 c 1
 317 7 l 1
 301.106445312 -0.7998046875 263 -6 236 -6 c 3
 122.309570312 -6 67 37 67 145 c 2
EndSplineSet
EndChar

StartChar: e
Encoding: 101 101 41
Width: 539
VWidth: 0
Flags: HW
LayerCount: 2
Fore
SplineSet
90 298 m 1
 450 298 l 1
 450 205 l 1
 90 205 l 1
 90 298 l 1
486 25 m 1
 445 0.857421875 378 -14 303 -14 c 3
 123 -14 20 91.6025390625 20 252 c 3
 20 397.436523438 113.728515625 517 280 517 c 3
 430.099609375 517 517 408.4453125 517 273 c 3
 517 249.34765625 516.25 227.666992188 514 205 c 1
 384 205 l 1
 387 226.685546875 389 249.357421875 389 274 c 3
 389 347.439453125 353.318359375 405 277 405 c 3
 194.354492188 405 149 344.3984375 149 253 c 7
 149 164 196 99 317 99 c 3
 367 99 434.225585938 114.063476562 486 143 c 1
 486 25 l 1
EndSplineSet
EndChar

StartChar: s
Encoding: 115 115 42
Width: 416
VWidth: 0
Flags: HW
LayerCount: 2
Fore
SplineSet
380 490 m 1
 351 379 l 1
 311 399.25 273 406 233 406 c 3
 177 406 156 392 156 368 c 3
 156 348.405273438 163.870119255 338.683598772 203.420898438 322.404296875 c 2
 270 295 l 2
 355 260.013567625 398 226.896484375 398 141 c 3
 398 44 322 -14 202 -14 c 3
 134.212890625 -14 75.8056640625 2 39 24 c 1
 39 143 l 1
 91 111.354492188 149 94 204 94 c 3
 255 94 272 108.349609375 272 135 c 3
 272 154.771484375 257.906240827 167.773415397 220.310546875 183.375976562 c 2
 143.860351562 215.103515625 l 2
 86.0411023207 239.099039526 30 270.952148438 30 361 c 3
 30 459 110 517 240 517 c 3
 295 517 350 505.119140625 380 490 c 1
EndSplineSet
EndChar

StartChar: c
Encoding: 99 99 43
Width: 457
VWidth: 0
Flags: HW
LayerCount: 2
Fore
SplineSet
412 381 m 1
 384.142857143 390.06640625 355.357142857 398 308 398 c 3
 240.829101562 398 149 366.248046875 149 253 c 3
 149 144.887695312 233.637695312 101 314 101 c 3
 356.943899263 101 408.672240218 112.458007812 436 126 c 1
 436 10 l 1
 412.549418605 -0.953125 365.649224806 -13 308 -13 c 3
 179.7734375 -13 20 49.380859375 20 249 c 3
 20 465.290039062 198.962890625 516 322 516 c 3
 377.537190083 516 422.165289256 503.5 442 496 c 1
 412 381 l 1
EndSplineSet
EndChar

StartChar: r
Encoding: 114 114 44
Width: 357
VWidth: 0
Flags: HW
LayerCount: 2
Fore
SplineSet
50 0 m 1
 50 503 l 1
 174 503 l 1
 175 360 l 1
 179 360 l 1
 179 0 l 1
 50 0 l 1
328 362 m 1
 307 369 294 372 273 372 c 3
 213 372 179 335.809379829 179 247 c 1
 163 328 l 5
 163 437.887054443 213.732064651 510 304 510 c 3
 325 510 344 506 362 495 c 1
 328 362 l 1
EndSplineSet
EndChar

StartChar: v
Encoding: 118 118 45
Width: 495
VWidth: 0
Flags: HW
LayerCount: 2
Fore
SplineSet
330 0 m 5
 210 0 l 5
 353 503 l 1
 485 503 l 1
 330 0 l 5
161 0 m 5
 10 503 l 1
 147 503 l 1
 288 0 l 5
 161 0 l 5
EndSplineSet
EndChar

StartChar: m
Encoding: 109 109 46
Width: 809
VWidth: 0
Flags: HW
LayerCount: 2
Fore
SplineSet
433 321 m 1
 433 435.11328125 494.119140625 510 606 510 c 3
 706.471679688 510 765 443.192382812 765 342 c 2
 765 0 l 1
 636 0 l 1
 636 302 l 2
 636 356.786132812 610.930664062 393 559 393 c 3
 503.958984375 393 472 357.513671875 472 292 c 1
 433 321 l 1
50 0 m 1
 50 503 l 1
 175 503 l 5
 176 360 l 1
 179 360 l 1
 179 0 l 1
 50 0 l 1
162 357 m 1
 162 449.377929688 215.346679688 510 313 510 c 3
 413.471679688 510 472 443.192382812 472 342 c 2
 472 0 l 1
 343 0 l 1
 343 302 l 2
 343 356.786132812 317.930664062 393 266 393 c 3
 210.958984375 393 179 357.513671875 179 292 c 1
 162 357 l 1
EndSplineSet
EndChar

StartChar: f
Encoding: 102 102 47
Width: 342
VWidth: 0
Flags: HW
LayerCount: 2
Fore
SplineSet
20 503 m 1
 335 503 l 1
 335 393 l 1
 0 393 l 1
 20 503 l 1
78 523 m 6
 78 669.16 190.8515625 697 264 697 c 3
 289.549019608 697 306.607843137 693.5 317 690 c 1
 338 580 l 1
 326.860648777 582.492675781 308.625 585 291 585 c 3
 245 585 207 571.229508197 207 525 c 2
 207 0 l 1
 78 0 l 1
 78 523 l 6
EndSplineSet
EndChar

StartChar: g
Encoding: 103 103 48
Width: 593
VWidth: 0
Flags: HW
LayerCount: 2
Fore
SplineSet
414 360 m 1
 414 317 l 1
 415 317 l 1
 415 217 l 1
 414 217 l 1
 414 61 l 2
 414 -27.751953125 347.452148438 -57 259 -57 c 3
 205.911132812 -57 131.9140625 -41.98046875 80 -8 c 1
 80 -126 l 1
 123 -152 201 -166 263 -166 c 3
 445.28515625 -166 543 -80 543 72 c 2
 543 503 l 1
 418 503 l 1
 417 360 l 1
 414 360 l 1
257 20 m 3
 373.124023438 20 446 105.778320312 446 213 c 1
 446 322 l 1
 446 428.727539062 373.900390625 515 257 515 c 3
 108.209960938 515 20 407.254882812 20 267 c 3
 20 127.713867188 108.209960938 20 257 20 c 3
282 134 m 3
 195.0390625 134 149 193.407226562 149 267 c 3
 149 340.655273438 195.0390625 401 282 401 c 3
 368.9609375 401 415 340.655273438 415 267 c 3
 415 193.407226562 368.9609375 134 282 134 c 3
EndSplineSet
EndChar

StartChar: j
Encoding: 106 106 49
Width: 229
VWidth: 0
Flags: HW
LayerCount: 2
Fore
SplineSet
50 566 m 1
 50 688 l 1
 179 688 l 1
 179 566 l 1
 50 566 l 1
50 20 m 2
 50 503 l 1
 179 503 l 1
 179 23 l 2
 179 -108.186440678 115 -157 16 -157 c 3
 -6 -157 -35 -152.6 -48 -146 c 5
 -48 -38 l 1
 -34.8780487805 -42.32 -19 -44 -10 -44 c 3
 30 -44 50 -20.9180327869 50 20 c 2
EndSplineSet
EndChar

StartChar: k
Encoding: 107 107 50
Width: 503
VWidth: 0
Flags: HW
LayerCount: 2
Fore
SplineSet
158 260 m 1
 282 303 l 1
 508 0 l 1
 347 0 l 1
 158 260 l 1
153 260 m 1
 350 503 l 1
 503 503 l 1
 282 229 l 1
 153 260 l 1
50 0 m 1
 50 688 l 1
 179 688 l 1
 179 0 l 1
 50 0 l 1
EndSplineSet
EndChar

StartChar: w
Encoding: 119 119 51
Width: 726
VWidth: 0
Flags: HW
LayerCount: 2
Fore
SplineSet
602 0 m 1
 490 0 l 1
 580 503 l 1
 706 503 l 1
 602 0 l 1
458 0 m 1
 319 503 l 1
 429 503 l 1
 568 0 l 1
 458 0 l 1
266 0 m 1
 163 0 l 1
 302 503 l 1
 407 503 l 5
 266 0 l 1
122 0 m 1
 20 503 l 1
 151 503 l 1
 241 0 l 1
 122 0 l 1
EndSplineSet
EndChar

StartChar: x
Encoding: 120 120 52
Width: 492
VWidth: 0
Flags: HW
LayerCount: 2
Back
SplineSet
139 0 m 5
 -5 0 l 5
 343 503 l 5
 486 503 l 5
 139 0 l 5
349 0 m 5
 10 503 l 5
 159 503 l 5
 497 0 l 5
 349 0 l 5
EndSplineSet
Fore
SplineSet
139 0 m 5
 -5 0 l 5
 164.318359375 259.1875 l 5
 10 503 l 5
 159 503 l 5
 249.659179688 350.084960938 l 5
 343 503 l 5
 486 503 l 5
 330.3515625 262.881835938 l 5
 497 0 l 5
 349 0 l 5
 245.224609375 171.979492188 l 5
 139 0 l 5
EndSplineSet
EndChar

StartChar: y
Encoding: 121 121 53
Width: 488
VWidth: 0
Flags: HW
LayerCount: 2
Back
SplineSet
319.458984375 16.501953125 m 6
 280 -99 232.135144292 -158 125 -158 c 7
 86 -158 51 -149 33 -139 c 5
 33 -26 l 5
 54 -35 83 -43 109 -43 c 7
 158.692307692 -43 180.619242579 -14.9508700102 185 19 c 6
 189 50 l 5
 215 50 l 5
 352 503 l 5
 483 503 l 5
 331 50 l 5
 319.458984375 16.501953125 l 6
169 50 m 5
 8 503 l 5
 149 503 l 5
 294 50 l 5
 203 -49 l 5
 169 50 l 5
EndSplineSet
Fore
SplineSet
319.458984375 16.501953125 m 2
 280 -99 232.135144292 -158 125 -158 c 3
 86 -158 51 -149 33 -139 c 1
 33 -26 l 1
 54 -35 83 -43 109 -43 c 3
 158.692307692 -43 180.619242579 -14.9508700102 185 19 c 2
 189 50 l 1
 215 50 l 1
 352 503 l 1
 483 503 l 1
 319.458984375 16.501953125 l 2
8 503 m 1
 149 503 l 1
 294 50 l 1
 204 -49 l 5
 8 503 l 1
EndSplineSet
EndChar

StartChar: z
Encoding: 122 122 54
Width: 440
VWidth: 0
Flags: HW
LayerCount: 2
Fore
SplineSet
10 24 m 1
 90 112 l 1
 445 112 l 1
 410 0 l 1
 10 0 l 1
 10 24 l 1
424 479 m 1
 343 391 l 1
 10 391 l 1
 45 503 l 1
 424 503 l 1
 424 479 l 1
10 24 m 1
 275 466 l 1
 424 479 l 1
 159 39 l 5
 10 24 l 1
EndSplineSet
EndChar

StartChar: period
Encoding: 46 46 55
Width: 234
VWidth: 0
Flags: HW
LayerCount: 2
Fore
SplineSet
50 0 m 1
 50 133 l 1
 184 133 l 5
 184 0 l 5
 50 0 l 1
EndSplineSet
EndChar

StartChar: uni0080
Encoding: 128 128 56
Width: 632
VWidth: 0
Flags: HW
LayerCount: 2
Back
SplineSet
773 0 m 1
 773 688 l 1
 907 688 l 1
 907 0 l 1
 773 0 l 1
853 404.916992188 m 1
 1328 404.916992188 l 1
 1306 286.916992188 l 1
 853 286.916992188 l 1
 853 404.916992188 l 1
1117 1 m 1
 1117 689 l 1
 1251 689 l 1
 1251 1 l 1
 1117 1 l 1
854 688 m 1
 1173 688 l 1
 1173 566 l 1
 854 566 l 1
 854 688 l 1
EndSplineSet
Fore
SplineSet
459 0 m 1
 297 688 l 1
 432 688 l 1
 595 0 l 1
 459 0 l 1
186 688 m 1
 423 688 l 1
 423 566 l 1
 184 566 l 1
 186 688 l 1
10 0 m 1
 173 688 l 1
 306 688 l 1
 144 0 l 1
 10 0 l 1
124 298.916992188 m 1
 622 298.916992188 l 1
 600 180.916992188 l 1
 124 180.916992188 l 1
 124 298.916992188 l 1
EndSplineSet
EndChar

StartChar: uni0081
Encoding: 129 129 57
Width: 661
VWidth: 0
Flags: HW
LayerCount: 2
Fore
SplineSet
121 413.916992188 m 5
 649 413.916992188 l 5
 626 291 l 5
 121 290.916992188 l 5
 121 413.916992188 l 5
436 0 m 5
 436 688 l 5
 570 688 l 5
 570 0 l 5
 436 0 l 5
60 0 m 5
 60 688 l 5
 194 688 l 5
 194 0 l 5
 60 0 l 5
EndSplineSet
EndChar

StartChar: comma
Encoding: 44 44 58
Width: 234
VWidth: 0
Flags: HW
LayerCount: 2
Fore
SplineSet
65 40 m 1
 65 133 l 1
 188 133 l 1
 188 18 l 1
 68 -170 l 5
 1 -146 l 1
 65 40 l 1
EndSplineSet
EndChar

StartChar: two
Encoding: 50 50 59
Width: 550
VWidth: 0
Flags: HW
LayerCount: 2
Fore
SplineSet
39 0 m 1
 143 121 l 1
 529 121 l 1
 497 0 l 1
 39 0 l 1
48 518 m 1
 82 647 l 1
 123.329787233 674.621763931 183.26548995 697 267 697 c 3
 397.047489665 697 495 635.988764045 495 511 c 3
 495 438.196589488 465.970634417 380.033235936 368.55078125 293.958007812 c 2
 269 206 l 2
 219.715040362 162.454315974 207.900431344 140.934579439 202 88 c 1
 39 0 l 1
 39 32 l 2
 39 115 86.8934276708 204.341132402 196.064453125 302.57421875 c 2
 281 379 l 2
 349 440.187021409 360 460.608173793 360 502 c 3
 360 553.598015738 315 576 252 576 c 3
 167.625233154 576 109.398058252 553.766666667 48 518 c 1
EndSplineSet
EndChar

StartChar: one
Encoding: 49 49 60
Width: 550
VWidth: 0
Flags: HW
LayerCount: 2
Back
SplineSet
292 688 m 5
 349 483 l 5
 86 483 l 5
 86 582 l 5
 227.226804124 592.499693819 259 604 292 688 c 5
264 0 m 5
 264 591 l 5
 292 688 l 5
 398 688 l 5
 398 0 l 5
 264 0 l 5
EndSplineSet
Fore
SplineSet
332 688 m 1
 332 565 l 1
 72 565 l 5
 104 688 l 5
 332 688 l 1
264 0 m 1
 264 688 l 1
 398 688 l 1
 398 0 l 1
 264 0 l 1
EndSplineSet
EndChar

StartChar: three
Encoding: 51 51 61
Width: 550
VWidth: 0
Flags: HW
LayerCount: 2
Fore
SplineSet
510 202 m 7
 510 73.7523809524 407.373271889 -8 257 -8 c 7
 168.299670917 -8 97.0101522843 13.84 51 44 c 5
 51 173 l 5
 117 135 168.83902439 112 254 112 c 7
 316.544710202 112 371 139.846109704 371 203 c 7
 371 278.186915888 279.432692308 301.01980198 157 302 c 5
 185 408 l 5
 276 379 l 5
 379.209125476 379 510 327.219512195 510 202 c 7
354 498 m 7
 354 553.375 300.434782609 579 238 579 c 7
 169.359375 579 104.485436893 556.766666667 47 521 c 5
 81 650 l 5
 123.446808511 675.964458095 182.236373938 697 271 697 c 7
 394.826043099 697 492 635.988764045 492 524 c 7
 492 405.333333333 384.745247148 346 328 346 c 5
 185 408 l 5
 279.212643678 410.02247191 354 427 354 498 c 7
EndSplineSet
EndChar

StartChar: zero
Encoding: 48 48 62
Width: 550
VWidth: 0
Flags: HW
LayerCount: 2
Fore
SplineSet
274 700 m 3
 438.218185016 700 525 584.854492188 525 346 c 3
 525 104.91796875 438.218185016 -12 274 -12 c 3
 111.090405556 -12 25 104.91796875 25 346 c 3
 25 584.854492188 111.090405556 700 274 700 c 3
274 579 m 3
 197.930741567 579 158 515.575195312 158 346 c 3
 158 174.342773438 197.930741567 109 274 109 c 3
 351.380783081 109 392 174.342773438 392 346 c 3
 392 515.575195312 351.380783081 579 274 579 c 3
EndSplineSet
EndChar

StartChar: four
Encoding: 52 52 63
Width: 550
VWidth: 0
Flags: HW
LayerCount: 2
Fore
SplineSet
10 275 m 1
 555 275 l 1
 533 160 l 1
 10 160 l 1
 10 275 l 1
327 0 m 1
 327 688 l 1
 461 688 l 1
 461 0 l 1
 327 0 l 1
10 275 m 5
 276 688 l 5
 403 688 l 5
 143 275 l 5
 10 275 l 5
EndSplineSet
EndChar

StartChar: five
Encoding: 53 53 64
Width: 550
VWidth: 0
Flags: HW
LayerCount: 2
Fore
SplineSet
60 371 m 1
 106 688 l 1
 226 688 l 1
 179 371 l 1
 60 371 l 1
105 565 m 1
 106 688 l 1
 485 688 l 1
 452 565 l 1
 105 565 l 1
511 230 m 3
 511 84 403.915928927 -8 242 -8 c 3
 159.041561403 -8 87.4467005077 13.42 43 43 c 5
 43 172 l 5
 103.796116505 135 163.073466435 112 245 112 c 3
 315.462121212 112 376 143.824125376 376 218 c 3
 376 300.291489443 305 327 221 327 c 3
 165.112716448 327 94.8117647059 316 48 301 c 1
 64 399 l 1
 108.954773869 415.918011944 192.009852217 440 277 440 c 3
 406.375593355 440 511 366 511 230 c 3
EndSplineSet
EndChar

StartChar: seven
Encoding: 55 55 66
Width: 550
VWidth: 0
Flags: HW
LayerCount: 2
Fore
SplineSet
535 688 m 1
 535 662 l 1
 455 565 l 1
 17 565 l 1
 50 688 l 1
 535 688 l 1
85 0 m 5
 397 662 l 1
 535 662 l 1
 231 0 l 1
 85 0 l 5
EndSplineSet
EndChar

StartChar: eight
Encoding: 56 56 67
Width: 550
VWidth: 0
Flags: HWO
LayerCount: 2
Fore
SplineSet
275 -12 m 1
 117.459502551 -12 27 71.1266433176 27 184 c 3
 27 277.062470832 83 341.74278845 197.299804688 377.045898438 c 2
 247.87890625 392.66796875 l 2
 333.011610913 418.962407699 371 453.906674541 371 501 c 3
 371 548.168498168 332.600398936 580 275 580 c 1
 275 698 l 1
 419.631319693 698 504 620.234375 504 509 c 3
 504 421.336007259 446 354.692593796 337.357421875 320.016601562 c 2
 283.09765625 302.698242188 l 2
 197.844391511 275.487533486 160 243.550430538 160 195 c 3
 160 147.231415643 204.549865723 107 275 107 c 1
 275 -12 l 1
275 -12 m 1
 275 107 l 1
 345.450134277 107 390 147.231415643 390 195 c 3
 390 243.550430538 352.155608489 275.487533486 266.90234375 302.698242188 c 2
 212.642578125 320.016601562 l 2
 104 354.692593796 46 421.336007259 46 509 c 3
 46 620.234375 130.368680307 698 275 698 c 1
 275 580 l 1
 217.399601064 580 179 548.168498168 179 501 c 3
 179 453.906674541 216.988389087 418.962407699 302.12109375 392.66796875 c 2
 352.700195312 377.045898438 l 2
 467 341.74278845 523 277.062470832 523 184 c 3
 523 71.1266433176 432.540497449 -12 275 -12 c 1
EndSplineSet
EndChar

